<svg version="1" xmlns="http://www.w3.org/2000/svg" width="666.667" height="666.667" viewBox="0 0 500.000000 500.000000"><path d="M68 36.5c-11.9 2.1-19.1 6.4-24.4 14.9-9.6 14.9-8.8 35.4 2.8 73.6 2.8 9.4 15.6 48.4 16.6 50.5.4 1.1 1.1 2.9 1.3 4 .6 2.1 5.1 14.5 6.6 18 .4 1.1 1.6 3.7 2.5 5.8.9 2.1 1.6 4.2 1.6 4.7s1.2 3.5 2.6 6.7c1.4 3.2 3.1 7.1 3.9 8.8 8.5 19.7 18.9 40.2 26.2 51.7 1.2 2.1 2.3 4.1 2.3 4.6s-2 3-4.4 5.5c-5.2 5.6-9.6 14.1-9.6 18.8 0 3.8 2.3 7.7 6.3 10.9 1.5 1.2 2.7 3.1 2.7 4.4 0 1.2-1.8 5.7-4.1 10.1-5.4 10.5-6.2 17.2-2.8 24 2.2 4.4 16.3 18.5 26 26 2.2 1.6 3.9 3.3 3.9 3.7 0 .4-1.7 1-3.7 1.3-2.1.4-6.3 1.3-9.3 2.2-18.6 5.2-29.2 11.5-35.8 21.5-2.5 3.9-2.7 4.8-2.7 15.2 0 10.3.2 11.4 2.8 15.8 9.4 15.8 40.3 26 79.2 26.1 39.7.1 72-11 80.3-27.6 3-6 4-18.6 2.1-25.3-1.8-6.4-10.2-14.8-18.7-18.8-6-2.9-7.8-4.6-4.8-4.6.8 0 3.5 1.3 5.9 3 2.5 1.6 4.8 3 5.1 3 .3 0 3.4 1.7 6.9 3.9 8.7 5.3 36.5 18.8 51.6 25.1 28.5 11.8 82.5 30.7 104.3 36.4 45.2 11.9 70.9-1.6 71.2-37.2.1-14.4-7.5-44.6-16.7-66.2-3.9-9.3-13.6-28.8-17.7-35.5-1.6-2.8-3.3-5.7-3.7-6.5-1.8-3.9-25.4-38.8-29.2-43.2-4.4-5.1-12.5-15.8-13.7-18.1-1.5-2.9-1.6-1.7 1.6-47.7.5-8 1.6-20 2.4-26.7 1.2-10.6 1.8-12.7 4-15.4 1.4-1.7 2.6-3.9 2.6-5s1-2.3 2.5-2.9c5.1-1.9 15-13 35.5-40 3-3.9 7-9.1 8.9-11.3 9.6-11.8 12-20.8 8.6-32-2.2-7.3-6.9-13.1-13.5-16.6-5-2.7-6.8-3.1-13.3-3.1-4.6 0-9 .6-11.3 1.6-3.1 1.3-24.5 16.2-26.4 18.4-.3.4-5.2 4.2-11 8.5-21.2 15.8-27 21.9-27 28.3 0 2.8-.5 3.4-4 4.8-4 1.6-6 4.9-4.5 7.4.8 1.2.4 1.3-11 3.3-18.9 3.4-27.2 4.8-32 5.7-2.7.6-9 1.7-14 2.6-4.9.8-12.4 2.1-16.5 2.9-4.1.7-11.8 2.1-17 3-5.2.9-11.5 2-14 2.6-2.5.5-11.2 2-19.5 3.4-8.2 1.5-21.3 3.7-29 5.1-7.7 1.3-23.4 4-35 5.9-11.5 1.9-23.5 3.9-26.5 4.5-3 .5-8.2 1.2-11.5 1.6-7.7.8-6.3-.9 2-2.5 14.8-2.9 92-17.2 103-19.1 8-1.4 43.8-8 46.4-8.6 2.3-.5 2.3-.5.5-2.6-3-3.3-35-28.4-47.5-37.3C192 76.3 162.7 59.4 143 51.2c-16.8-7-37.1-12.6-54-14.8-12.1-1.6-11.2-1.6-21 .1zm268.4 94.4c.3.4-.3 1.6-1.4 2.6-1.9 1.7-2.1 1.7-4.7-.1l-2.8-1.9 3.5-.6c1.9-.4 3.8-.7 4.2-.8.4 0 .9.3 1.2.8zM349 132c0 1.1-7.4 6-9 6-1.9 0-1-1.8 1.8-3.8 4.2-3 7.2-3.9 7.2-2.2zm-30.4 5.2c-4.1 4.7-4.1 4.8-2 10.7 1.5 4.4 1.5 4.5-.8 6.3-8.6 6.6-20.6 11.9-19.3 8.5.5-1.3-12.1-14.2-17.7-18.2-3.4-2.3-1.3-4.9 4.8-5.6 2.7-.3 9.4-1.4 14.9-2.4 13.1-2.3 18.5-3.2 21.3-3.4 2.2-.1 2.2.1-1.2 4.1zm49.6 4.5c4.5 4.5 4.8 5 4.8 10 0 4.7-.4 5.8-3.6 9.3-2 2.2-4 4-4.3 4-.4 0-2.2-2-4-4.5-1.7-2.4-3.7-5-4.4-5.8-.7-.7-2.2-2.4-3.5-3.9l-2.3-2.5 5.8-5.6c3.2-3.1 6-5.7 6.3-5.7.2 0 2.6 2.1 5.2 4.7zm-23.8 18.5c3.1 3.4 5.4 6.4 5.1 6.7-.3.3-3.6-2.5-7.3-6.2-4.2-4.2-6.1-6.7-5-6.7.9 0 4.1 2.8 7.2 6.2zm-12.5 8.9c10.4 10.3 22.1 17.6 26.5 16.5 1.2-.3 3.9-2.2 5.9-4.2 3-3 3.7-4.5 3.7-7.6 0-3.1.6-4.4 3.2-6.7 3.9-3.4 5.2-3 4.4 1.3-.3 1.7-.8 10.1-1.2 18.6-.3 8.5-.9 18.4-1.4 22-.5 3.6-1 10.8-1 16.1 0 6.8-.4 10.1-1.5 11.5-.8 1-1.5 3.7-1.5 5.9s-.7 8-1.5 13c-.8 4.9-1.5 12.6-1.6 17-.1 11.4-1.7 14.3-1.9 3.5-.3-18-2-21-8.1-14.7-2.4 2.4-4.3 3.4-6.7 3.5-4.2.1-7.1 1-10.4 3.4-2.8 1.9-2.8 1.9-5.7-.1l-3-2.1-2.7 2.5c-3 2.7-5.3 3.2-7.2 1.3-.9-.9-1.5-1-2-.2-.8 1.4-10.5 2.6-18.7 2.5-10.7-.2-15.2-1.1-17.6-3.7-1.2-1.3-2.7-2.4-3.3-2.4-.6-.1-2.1-.9-3.3-1.9-1.9-1.6-2.2-2.9-2.4-11.7-.3-8.2 0-10.4 1.5-12.7 1-1.5 2.6-2.7 3.5-2.7 2.2 0 4.6-2.9 5.5-6.6.8-3 3.3-6.4 4.7-6.4.4 0 1.9-.4 3.3-.9 2.2-.9 2.4-1.3 1.4-3.9-.9-2.4-.8-3.7.6-6.6 1-2.2 1.4-4.5 1-5.8-.5-1.8-.3-2 1.5-1.5 1.7.4 2.5-.1 3.3-2.1 2.3-5.9 3.2-7.2 4.8-7.2 2.6 0 4.3-2.6 3.6-5.4-.4-1.8-.1-2.5 1.4-2.9 2.1-.5 2.8-4.1 1-5.2-1.5-.9-1.2-2.5.4-2.5.8 0 1.6.7 2 1.5.6 1.5 4.6 2.1 4.6.7 0-.4-1.5-2.3-3.4-4.1l-3.4-3.3-2.3 2.1c-1.3 1.2-3.4 2.4-4.6 2.7-1.3.4-2.3 1-2.3 1.5s-1 .9-2.1.9c-1.6 0-.6-1.1 3.7-4 3.2-2.1 6.3-4.8 6.9-5.9.6-1.1 4-4 7.5-6.4 7.4-5 6.3-5.3 14.9 3.4zM294 166c0 .5-.8 1-1.7 1-1.5 0-1.6-.2-.3-1 1.9-1.2 2-1.2 2 0zm-4 2.4c0 .3-.4.8-1 1.1-.5.3-1 .1-1-.4 0-.6.5-1.1 1-1.1.6 0 1 .2 1 .4zm6.5 15.6c-.3.5-1.3 1-2.1 1s-1.2-.5-.9-1c.3-.6 1.3-1 2.1-1s1.2.4.9 1zM98 204c0 .5-.4 1-1 1-.5 0-1-.5-1-1 0-.6.5-1 1-1 .6 0 1 .4 1 1zm3 4c0 .9 5.9 7.8 12.1 14.1 2.9 3 4.3 3.7 7.7 3.7 4.7.1 5-.4 2.5-3.9-2.1-2.8-4.3-6.6-4.3-7.4 0-.8 5.5 5.6 18.5 21.5 6.6 8 13.1 15.8 14.6 17.5 1.4 1.6 6.1 7 10.4 12 8.5 9.7 12.2 13.8 32 34.9 17.2 18.4 18.6 19.9 18 20.4-.2.3-2-1-4-2.7-2-1.7-4-2.9-4.5-2.6-1.1.7-.9 9.5.2 9.5.4 0 .8.5.8 1.1 0 .5 2.3 3.3 5 6.1 4.6 4.7 6 6.8 4.3 6.8-1.9 0-40.5-38-56.3-55.5-18.2-20.1-44.6-53.2-52.6-66-1-1.7-2.1-3.2-2.4-3.5-.3-.3-1.3-1.7-2.3-3.2-1.9-3-2.3-5.3-.7-4.3.6.3 1 1 1 1.5zm116.5 132c.3.5.1 1-.4 1-.6 0-1.1-.5-1.1-1 0-.6.2-1 .4-1 .3 0 .8.4 1.1 1zm3 3c.3.5.1 1-.4 1-.6 0-1.1-.5-1.1-1 0-.6.2-1 .4-1 .3 0 .8.4 1.1 1z"/></svg>